# xmcd
#
# Track frame offsets: 
#        150
#        19074
#        37206
#        56162
#        80295
#        98764
#        117682
#        137978
#        157689
#        177762
#        195521
#        213525
#        236254
#        262547
#        277164
#        295336
#        314585
#        324260
#        343067
#        361628
#        375221
#
# Disc length: 5247 seconds
#
# Revision: 3
# Processed by: cddbd v1.5.2PL0 Copyright (c) Steve Scherf et al.
# Submitted via: ExactAudioCopy v1.0b3
#
DISCID=2b147d15
DTITLE=Tonke Dragt - Der Wilde Wald - CD 2
DYEAR=2005
DGENRE=Hörbuch
TTITLE0=Fortsetzung - Gelbe Blumen
TTITLE1=Der Narr Aus Der Waldhütte
TTITLE2=Der Narr Aus Der Waldhütte
TTITLE3=Der Narr Aus Der Waldhütte
TTITLE4=Der Narr Aus Der Waldhütte
TTITLE5=Der Narr Aus Der Waldhütte
TTITLE6=Der Narr Aus Der Waldhütte
TTITLE7=Jeder Seinen Weg
TTITLE8=Jeder Seinen Weg
TTITLE9=Jeder Seinen Weg
TTITLE10=Jeder Seinen Weg
TTITLE11=Der Mann In Grün
TTITLE12=Der Mann In Grün
TTITLE13=Der Mann In Grün
TTITLE14=Der Mann In Grün
TTITLE15=Der Mann In Grün
TTITLE16=Die Feinde
TTITLE17=Die Feinde
TTITLE18=Die Feinde
TTITLE19=Die Feinde
TTITLE20=Die Feinde
EXTD=Gelesen Von Konstantin Graudus YEAR: 2005
EXTT0=
EXTT1=
EXTT2=
EXTT3=
EXTT4=
EXTT5=
EXTT6=
EXTT7=
EXTT8=
EXTT9=
EXTT10=
EXTT11=
EXTT12=
EXTT13=
EXTT14=
EXTT15=
EXTT16=
EXTT17=
EXTT18=
EXTT19=
EXTT20=
PLAYORDER=
